<svg width="200" height="198" viewBox="0 0 200 198" fill="none" xmlns="http://www.w3.org/2000/svg">
<path d="M42.3079 139.589C43.984 139.589 45.3428 138.23 45.3428 136.554C45.3428 134.878 43.984 133.519 42.3079 133.519C40.6317 133.519 39.2729 134.878 39.2729 136.554C39.2729 138.23 40.6317 139.589 42.3079 139.589Z" fill="#59A552"/>
<path d="M174.131 91.2455C176.278 91.2455 178.019 89.5049 178.019 87.3576C178.019 85.2104 176.278 83.4697 174.131 83.4697C171.983 83.4697 170.243 85.2104 170.243 87.3576C170.243 89.5049 171.983 91.2455 174.131 91.2455Z" fill="#59A552"/>
<path d="M102.761 153.382C136.796 153.382 164.387 125.791 164.387 91.7562C164.387 57.7211 136.796 30.1302 102.761 30.1302C68.7262 30.1302 41.1353 57.7211 41.1353 91.7562C41.1353 125.791 68.7262 153.382 102.761 153.382Z" fill="#DFDFDF"/>
<path d="M50.0669 93.1406C50.0541 93.1406 50.0407 93.1406 50.028 93.1394C48.8315 93.0664 47.6715 92.9022 46.5796 92.6499C46.2385 92.5709 46.0252 92.2304 46.1042 91.8894C46.1832 91.5483 46.5267 91.3373 46.8648 91.414C47.8886 91.6504 48.9786 91.8049 50.1052 91.8736C50.4548 91.8949 50.7211 92.1952 50.6998 92.5448C50.6791 92.8816 50.4 93.1406 50.0675 93.1406H50.0669ZM53.4447 93.1071C53.1164 93.1071 52.838 92.8542 52.8131 92.5211C52.7863 92.1721 53.0477 91.8669 53.3967 91.8401C54.4679 91.7581 55.5695 91.6061 56.6712 91.3884C57.0208 91.3215 57.3484 91.5447 57.4165 91.8882C57.484 92.2317 57.2609 92.5648 56.9174 92.6329C55.7665 92.8597 54.615 93.0184 53.4946 93.1047C53.4782 93.1059 53.4617 93.1065 53.4453 93.1065L53.4447 93.1071ZM60.0715 91.8152C59.801 91.8152 59.5499 91.6401 59.4654 91.3684C59.362 91.034 59.5493 90.6789 59.8843 90.5756C60.9227 90.2546 61.9732 89.8728 63.0043 89.4411C63.3296 89.3055 63.6986 89.4588 63.8342 89.7816C63.9692 90.1044 63.8172 90.4759 63.4937 90.6115C62.4243 91.0583 61.3361 91.4541 60.2588 91.7872C60.1967 91.8067 60.1329 91.8158 60.0715 91.8158V91.8152ZM43.5234 91.5854C43.4346 91.5854 43.344 91.5666 43.2577 91.527C42.1512 91.0151 41.1414 90.3865 40.2574 89.6569C39.9869 89.4344 39.9486 89.0344 40.1717 88.7645C40.3936 88.4945 40.793 88.455 41.0642 88.6787C41.8643 89.3384 42.7817 89.9093 43.7897 90.3756C44.1076 90.5227 44.2457 90.8996 44.0991 91.2176C43.9915 91.4492 43.7623 91.586 43.5228 91.586L43.5234 91.5854ZM38.3946 87.3066C38.1934 87.3066 37.9952 87.2105 37.8724 87.0324C37.4322 86.394 37.0285 85.704 36.6802 84.9963C36.5239 85.0395 36.3513 85.0224 36.1993 84.9355C35.2429 84.3914 34.2799 83.7202 33.337 82.9414C33.0664 82.7183 33.0288 82.3182 33.2519 82.0489C33.4744 81.7784 33.8744 81.7407 34.1444 81.9638C34.8259 82.5268 35.5165 83.0289 36.2047 83.4618C36.2668 83.3086 36.389 83.1797 36.5543 83.1128C36.879 82.9821 37.2486 83.1384 37.3799 83.463C37.7788 84.4485 38.3101 85.4347 38.9163 86.3132C39.1151 86.6013 39.0421 86.9965 38.7539 87.1953C38.6439 87.2713 38.5187 87.3078 38.3946 87.3078V87.3066ZM41.7117 86.6044C40.9943 86.6044 40.238 86.5028 39.4646 86.3016C39.126 86.2135 38.9223 85.8675 39.0105 85.5283C39.0986 85.189 39.4434 84.9854 39.7838 85.0735C40.8836 85.3593 41.922 85.4109 42.8492 85.2273C43.1939 85.1574 43.5264 85.3824 43.5945 85.7265C43.662 86.07 43.4395 86.4037 43.0954 86.4718C42.6516 86.56 42.1859 86.6044 41.7117 86.6044ZM45.9777 85.0042C45.7929 85.0042 45.6093 84.9234 45.4841 84.7683C45.264 84.496 45.3065 84.0965 45.5789 83.8764C46.3978 83.215 47.0952 82.3912 47.5949 81.4932C47.7658 81.1868 48.1518 81.0774 48.4576 81.2476C48.7634 81.4185 48.8729 81.8045 48.7026 82.1103C48.1238 83.1487 47.3195 84.1002 46.3759 84.8626C46.258 84.9574 46.1176 85.0036 45.9777 85.0036V85.0042ZM35.9293 81.0737C35.6126 81.0737 35.3384 80.8366 35.3007 80.5144C35.2502 80.0876 35.2241 79.6614 35.2241 79.2474C35.2241 78.4449 35.3208 77.6631 35.5105 76.9244C35.598 76.5852 35.9445 76.3815 36.2826 76.4684C36.6218 76.5554 36.8267 76.9013 36.7391 77.2405C36.5756 77.8765 36.4929 78.5513 36.4929 79.2474C36.4929 79.6116 36.5154 79.9873 36.5604 80.3649C36.6017 80.7126 36.3531 81.0281 36.0053 81.0689C35.9798 81.0719 35.9549 81.0737 35.9299 81.0737H35.9293ZM31.2906 80.7588C31.1198 80.7588 30.9495 80.6901 30.8243 80.5545C30.0455 79.7095 29.3105 78.806 28.6411 77.8686C28.4374 77.5834 28.5037 77.1876 28.7888 76.984C29.074 76.7803 29.4697 76.846 29.6734 77.1317C30.3124 78.026 31.0134 78.8881 31.7575 79.6949C31.9946 79.9521 31.9788 80.3533 31.721 80.591C31.5988 80.7035 31.445 80.7588 31.2912 80.7588H31.2906ZM49.085 79.2201C49.0765 79.2201 49.068 79.2201 49.0589 79.2195C48.7087 79.2055 48.4369 78.9106 48.4503 78.5604C48.4534 78.4881 48.4546 78.4151 48.4546 78.3428C48.4546 78.2145 48.4503 78.085 48.4418 77.9549C48.3889 77.1761 48.1688 76.3553 47.8047 75.5808C47.6557 75.2634 47.7919 74.8859 48.1086 74.7369C48.426 74.5892 48.8029 74.7242 48.9525 75.0409C49.3829 75.9565 49.6437 76.9341 49.7076 77.8692C49.7185 78.0285 49.7234 78.1859 49.7234 78.3428C49.7234 78.4328 49.7216 78.5221 49.7185 78.6115C49.7045 78.9526 49.4237 79.2201 49.085 79.2201ZM27.3735 75.2616C27.1461 75.2616 26.9272 75.1394 26.813 74.9248C26.3272 74.0098 25.9132 73.0876 25.5818 72.1841C25.5265 72.034 25.4736 71.8826 25.4219 71.7312C25.3107 71.3992 25.4894 71.0399 25.8214 70.9281C26.1564 70.8168 26.5126 70.9956 26.6251 71.3275C26.6719 71.4679 26.7218 71.6084 26.7728 71.7476C27.0841 72.5975 27.4744 73.4663 27.9334 74.3302C28.0976 74.6397 27.9802 75.0233 27.6708 75.1875C27.5759 75.2379 27.4744 75.2616 27.3741 75.2616H27.3735ZM37.5952 74.6926C37.4644 74.6926 37.3325 74.6525 37.2194 74.5686C36.9373 74.3606 36.8772 73.9636 37.0851 73.6815C37.8608 72.6285 38.791 71.7859 39.7747 71.2454C40.0817 71.077 40.4666 71.1883 40.6362 71.4953C40.8046 71.8023 40.6927 72.1878 40.3857 72.3568C39.5619 72.8097 38.7734 73.5277 38.1058 74.4342C37.9818 74.6026 37.7897 74.692 37.5952 74.692V74.6926ZM46.3528 73.2657C46.2069 73.2657 46.0604 73.2152 45.9406 73.1131C45.1169 72.4072 44.1861 71.9598 43.2486 71.8187C42.9021 71.7665 42.6637 71.4436 42.716 71.0971C42.7677 70.7512 43.0942 70.5116 43.4377 70.5645C44.6104 70.7414 45.7613 71.2892 46.7657 72.1501C47.0313 72.3775 47.0623 72.7781 46.835 73.0444C46.7091 73.1909 46.5316 73.2663 46.3528 73.2663V73.2657ZM25.2237 68.8811C24.9161 68.8811 24.6462 68.6567 24.5975 68.343C24.4334 67.2736 24.3501 66.1677 24.3501 65.0546L24.3513 64.8722C24.3544 64.5232 24.6377 64.2429 24.9854 64.2429H24.9903C25.3405 64.2454 25.622 64.5317 25.6195 64.8819L25.6183 65.0546C25.6183 66.1033 25.6967 67.1447 25.8512 68.1503C25.9047 68.4962 25.6663 68.8203 25.321 68.8732C25.2882 68.878 25.2554 68.8805 25.2237 68.8805V68.8811ZM25.2608 62.1436C25.2286 62.1436 25.1964 62.1412 25.1642 62.1363C24.8176 62.0834 24.5805 61.7594 24.6334 61.4135C24.8042 60.3003 25.0541 59.1634 25.3776 58.0344C25.4742 57.6976 25.8256 57.5031 26.1618 57.5991C26.4986 57.6958 26.6932 58.0466 26.5965 58.3834C26.2877 59.4607 26.0487 60.5447 25.8864 61.6056C25.8384 61.9193 25.5685 62.1436 25.2602 62.1436H25.2608ZM27.1042 55.653C27.0233 55.653 26.9412 55.6372 26.8622 55.605C26.5388 55.4713 26.3843 55.0998 26.5187 54.7764C26.9491 53.7367 27.4477 52.6898 27.9991 51.6654C28.1651 51.3572 28.5487 51.2417 28.8581 51.4082C29.1664 51.5742 29.2813 51.9591 29.1153 52.2673C28.5839 53.2534 28.1043 54.2614 27.6902 55.2615C27.5893 55.5059 27.3528 55.653 27.1036 55.653H27.1042ZM30.2984 49.7029C30.178 49.7029 30.0558 49.6689 29.9476 49.5965C29.6558 49.4026 29.5767 49.0092 29.7707 48.7174C30.3957 47.7769 31.0766 46.8425 31.7946 45.9408C32.0122 45.6667 32.4111 45.6217 32.6859 45.8399C32.9601 46.0582 33.005 46.457 32.7868 46.7312C32.0919 47.6048 31.4322 48.5095 30.8267 49.4196C30.7045 49.6032 30.5033 49.7029 30.2984 49.7029ZM34.5006 44.4106C34.3456 44.4106 34.19 44.3541 34.0678 44.2398C33.8118 44.0002 33.7984 43.599 34.0374 43.343C34.6082 42.7326 35.2101 42.1241 35.8278 41.5343C36.0807 41.293 36.482 41.3009 36.7246 41.555C36.9665 41.8079 36.9574 42.2098 36.7039 42.4517C36.1032 43.0251 35.5184 43.6166 34.9639 44.21C34.8393 44.3437 34.6696 44.4112 34.5006 44.4112V44.4106Z" fill="#B7E2A8"/>
<g opacity="0.18" style="mix-blend-mode:multiply">
<path d="M161.771 147.405C161.771 147.4 161.772 147.394 161.772 147.39C161.771 147.384 161.772 147.375 161.77 147.369C161.77 147.326 161.769 147.28 161.765 147.236C161.762 147.191 161.76 147.145 161.753 147.1C161.752 147.081 161.751 147.063 161.75 147.041C161.747 147.03 161.747 147.017 161.745 147.005C161.741 146.975 161.737 146.945 161.731 146.918C161.728 146.888 161.724 146.858 161.717 146.828C161.706 146.763 161.695 146.7 161.681 146.638L161.646 146.479L161.527 145.949L150.297 95.6514C150.283 95.5894 150.266 95.525 150.249 95.4636C150.24 95.4192 150.226 95.373 150.21 95.3298C150.195 95.2775 150.177 95.2258 150.156 95.1742C150.141 95.131 150.125 95.0878 150.106 95.0459C150.09 95.0027 150.072 94.9638 150.053 94.9213C150.029 94.8678 150.005 94.8173 149.978 94.7644C149.923 94.6586 149.866 94.554 149.799 94.4537C149.799 94.4507 149.795 94.4483 149.795 94.4452C149.753 94.3832 149.711 94.3212 149.667 94.2628C149.509 94.044 149.329 93.8452 149.128 93.6701C149.081 93.6275 149.032 93.5862 148.98 93.5454C148.866 93.453 148.748 93.3703 148.626 93.2956C148.587 93.2706 148.546 93.2451 148.504 93.2232C148.451 93.1916 148.397 93.1606 148.339 93.1332C148.331 93.129 148.321 93.1247 148.311 93.1211L148.09 93.0183C148.09 93.0183 148.089 93.0153 148.087 93.0189L142.42 90.4223L134.389 54.4505C133.583 50.844 130.007 48.5733 126.401 49.3782L54.8662 65.35C51.2598 66.1549 48.989 69.7316 49.794 73.338L57.8251 109.308L53.798 114.071L53.6411 114.258C53.6339 114.266 53.626 114.274 53.6217 114.281C53.2144 114.803 52.9481 115.43 52.8611 116.098C52.8064 116.519 52.8234 116.956 52.9207 117.393L64.2404 168.091L64.2689 168.22L64.3042 168.38C64.3255 168.475 64.3486 168.566 64.3784 168.655C64.3844 168.676 64.3917 168.697 64.3978 168.717C64.4027 168.733 64.4076 168.749 64.4124 168.764C64.4155 168.773 64.4179 168.782 64.4209 168.791C64.4209 168.791 64.4209 168.792 64.4209 168.792C64.424 168.801 64.4282 168.809 64.4313 168.818C64.4495 168.872 64.4702 168.927 64.4902 168.98C64.4951 168.988 64.4981 169 64.5024 169.008C64.5115 169.029 64.5212 169.049 64.5304 169.069C64.5401 169.091 64.5498 169.112 64.5595 169.133C64.5644 169.145 64.5693 169.156 64.5747 169.167C64.579 169.177 64.5845 169.187 64.5887 169.197C64.6161 169.254 64.6453 169.31 64.6751 169.367C64.6817 169.378 64.6884 169.389 64.6951 169.4C64.7085 169.423 64.7219 169.446 64.7358 169.47C64.7504 169.494 64.7644 169.521 64.7802 169.545C64.8173 169.602 64.8556 169.662 64.8927 169.715C64.8939 169.717 64.8957 169.719 64.8976 169.721C64.9243 169.759 64.9535 169.794 64.9815 169.83C64.9936 169.846 65.004 169.864 65.0161 169.879C65.0514 169.927 65.0933 169.974 65.1316 170.021C65.1377 170.028 65.1444 170.034 65.1505 170.041C65.159 170.051 65.1687 170.06 65.1778 170.07C65.2028 170.098 65.2265 170.125 65.2538 170.152C65.2648 170.163 65.2769 170.171 65.2879 170.182C65.3347 170.229 65.3809 170.276 65.4301 170.321C65.4405 170.33 65.449 170.341 65.4599 170.35C65.5086 170.395 65.5602 170.436 65.6119 170.476C65.6368 170.496 65.6624 170.517 65.6879 170.537C65.725 170.565 65.7627 170.594 65.7992 170.619C65.8144 170.63 65.8314 170.637 65.8466 170.648C65.9177 170.696 65.9907 170.742 66.0648 170.786C66.0886 170.8 66.1117 170.813 66.1354 170.827C66.1658 170.844 66.195 170.862 66.2254 170.878C66.3463 170.941 66.4704 170.999 66.598 171.048C66.6193 171.056 66.6412 171.062 66.6625 171.07C66.6941 171.082 66.7257 171.095 66.7573 171.105C66.8078 171.122 66.8576 171.138 66.9081 171.155C66.9421 171.165 66.9768 171.171 67.0108 171.18C67.0491 171.189 67.0874 171.199 67.1264 171.207C67.1641 171.216 67.2011 171.225 67.2394 171.232C67.3002 171.244 67.3616 171.251 67.4236 171.261C67.434 171.262 67.4443 171.264 67.4553 171.265C67.4784 171.269 67.5009 171.275 67.5246 171.278C67.5544 171.281 67.586 171.284 67.617 171.286C67.6328 171.287 67.6486 171.289 67.6638 171.29C67.6668 171.29 67.6699 171.291 67.6729 171.291C67.7519 171.298 67.8298 171.299 67.9076 171.301C67.9295 171.302 67.9489 171.304 67.9702 171.302C67.9799 171.302 67.9909 171.301 68.0006 171.301C68.0152 171.301 68.0298 171.3 68.0444 171.299C68.0924 171.298 68.1404 171.298 68.1885 171.293C68.1915 171.293 68.1958 171.293 68.1994 171.293C68.2116 171.292 68.2231 171.291 68.2353 171.29C68.2493 171.289 68.2626 171.288 68.2766 171.286C68.3058 171.285 68.3344 171.281 68.3629 171.277C68.3757 171.276 68.3885 171.275 68.4013 171.273C68.411 171.272 68.4213 171.272 68.431 171.27C68.476 171.263 68.5241 171.256 68.569 171.249C68.6347 171.237 68.7004 171.226 68.7654 171.211L158.644 151.144L158.845 151.099C158.91 151.084 158.974 151.067 159.038 151.05C159.082 151.037 159.129 151.023 159.172 151.01C159.186 151.007 159.197 151.001 159.209 150.998C159.23 150.991 159.253 150.983 159.273 150.975C159.284 150.973 159.296 150.967 159.307 150.964C159.333 150.955 159.356 150.947 159.379 150.939C159.382 150.935 159.384 150.935 159.39 150.933C159.418 150.921 159.45 150.908 159.478 150.895C159.501 150.887 159.526 150.878 159.549 150.867C159.553 150.865 159.558 150.862 159.562 150.86C159.563 150.86 159.563 150.86 159.564 150.86C159.596 150.845 159.627 150.829 159.658 150.815C159.728 150.781 159.798 150.746 159.867 150.706C159.869 150.705 159.871 150.703 159.874 150.702C159.89 150.693 159.906 150.682 159.923 150.673C159.943 150.66 159.965 150.648 159.985 150.636C159.996 150.631 160.01 150.621 160.02 150.615C160.032 150.61 160.039 150.602 160.05 150.597C160.067 150.586 160.081 150.572 160.097 150.561C160.241 150.465 160.378 150.363 160.506 150.249C160.509 150.246 160.514 150.245 160.517 150.242C160.538 150.225 160.558 150.204 160.579 150.184C160.6 150.167 160.618 150.151 160.635 150.131C160.658 150.111 160.681 150.087 160.703 150.063C160.712 150.055 160.723 150.043 160.732 150.032C160.743 150.021 160.752 150.011 160.763 150C160.798 149.962 160.832 149.924 160.866 149.888C160.87 149.88 160.875 149.874 160.881 149.869C160.903 149.843 160.923 149.815 160.945 149.788C160.964 149.764 160.984 149.739 161.002 149.714C161.009 149.705 161.016 149.697 161.023 149.688C161.028 149.68 161.035 149.672 161.04 149.665C161.059 149.64 161.078 149.614 161.094 149.588C161.112 149.569 161.125 149.547 161.139 149.525C161.151 149.507 161.162 149.49 161.173 149.472C161.185 149.453 161.196 149.434 161.208 149.414C161.232 149.376 161.256 149.339 161.278 149.299C161.3 149.261 161.322 149.22 161.343 149.178C161.356 149.154 161.368 149.131 161.379 149.107C161.412 149.044 161.441 148.98 161.471 148.916C161.48 148.888 161.492 148.86 161.504 148.831C161.511 148.813 161.517 148.795 161.524 148.778C161.54 148.734 161.558 148.69 161.572 148.645C161.585 148.618 161.59 148.588 161.6 148.561C161.609 148.531 161.618 148.505 161.627 148.474C161.636 148.444 161.644 148.412 161.651 148.385C161.675 148.299 161.692 148.209 161.71 148.121C161.709 148.115 161.712 148.105 161.714 148.095C161.717 148.067 161.723 148.038 161.728 148.005C161.733 147.973 161.737 147.938 161.742 147.903C161.744 147.9 161.743 147.897 161.743 147.894C161.747 147.865 161.748 147.836 161.751 147.807C161.753 147.78 161.756 147.753 161.759 147.726C161.759 147.713 161.761 147.701 161.762 147.687C161.764 147.681 161.765 147.672 161.764 147.666C161.764 147.629 161.768 147.587 161.768 147.546C161.769 147.525 161.77 147.503 161.768 147.481C161.77 147.469 161.768 147.456 161.767 147.444C161.767 147.43 161.769 147.417 161.768 147.403L161.771 147.405Z" fill="#263D2E"/>
</g>
<path d="M153.445 90.181L164.829 141.168C164.843 141.23 164.854 141.293 164.866 141.359C164.872 141.388 164.876 141.418 164.88 141.449C164.886 141.475 164.889 141.505 164.893 141.536C164.895 141.547 164.895 141.56 164.898 141.571C164.9 141.593 164.9 141.611 164.901 141.63C164.908 141.675 164.909 141.721 164.914 141.767C164.917 141.809 164.918 141.855 164.918 141.899C164.92 141.92 164.918 141.942 164.917 141.965C164.92 141.979 164.922 141.998 164.919 142.014C164.921 142.035 164.919 142.057 164.918 142.079C164.918 142.119 164.915 142.161 164.914 142.198C164.915 142.204 164.914 142.213 164.913 142.219C164.907 142.289 164.904 142.358 164.894 142.426C164.894 142.429 164.895 142.432 164.893 142.435C164.888 142.471 164.884 142.506 164.878 142.537C164.873 142.57 164.867 142.599 164.864 142.627C164.863 142.637 164.86 142.647 164.861 142.653C164.843 142.74 164.826 142.831 164.802 142.917C164.795 142.944 164.787 142.976 164.778 143.006C164.769 143.036 164.76 143.063 164.751 143.093C164.741 143.12 164.735 143.149 164.723 143.177C164.704 143.234 164.683 143.291 164.661 143.346C164.648 143.383 164.633 143.414 164.622 143.448C164.586 143.524 164.553 143.599 164.514 143.673C164.486 143.729 164.458 143.782 164.428 143.832C164.4 143.885 164.368 143.935 164.335 143.986C164.323 144.011 164.306 144.032 164.29 144.058C164.276 144.08 164.262 144.101 164.245 144.121C164.229 144.146 164.21 144.172 164.191 144.198C164.186 144.205 164.179 144.213 164.174 144.22C164.129 144.283 164.08 144.344 164.031 144.401C164.025 144.405 164.021 144.412 164.016 144.42C163.976 144.463 163.937 144.508 163.894 144.552C163.879 144.568 163.867 144.583 163.854 144.595C163.831 144.619 163.809 144.643 163.785 144.663C163.768 144.683 163.75 144.699 163.729 144.716C163.709 144.736 163.688 144.757 163.667 144.774C163.523 144.905 163.366 145.023 163.201 145.129C163.19 145.134 163.182 145.142 163.171 145.147C163.16 145.153 163.147 145.162 163.135 145.168C163.097 145.192 163.059 145.216 163.017 145.238C162.949 145.278 162.879 145.312 162.809 145.347C162.772 145.364 162.736 145.381 162.699 145.399C162.677 145.41 162.651 145.419 162.628 145.427C162.6 145.44 162.569 145.453 162.541 145.465C162.535 145.467 162.532 145.467 162.53 145.471C162.507 145.479 162.484 145.487 162.458 145.496C162.447 145.499 162.435 145.505 162.423 145.507C162.403 145.515 162.38 145.523 162.36 145.53C162.349 145.533 162.337 145.539 162.322 145.542C162.279 145.555 162.232 145.568 162.189 145.582C162.124 145.599 162.06 145.616 161.995 145.631L71.9155 165.743C71.8505 165.757 71.7848 165.769 71.7191 165.78C71.6741 165.788 71.6261 165.795 71.5811 165.802C71.5301 165.81 71.4784 165.815 71.4267 165.818C71.3963 165.821 71.3665 165.825 71.3386 165.825C71.2656 165.832 71.1914 165.833 71.1203 165.833C71.099 165.835 71.0802 165.833 71.0577 165.831C70.9799 165.83 70.902 165.829 70.823 165.822C70.7756 165.817 70.7312 165.814 70.6868 165.809C70.474 165.785 70.2625 165.742 70.0576 165.686C70.0071 165.669 69.9573 165.652 69.9068 165.636C69.8503 165.618 69.7925 165.596 69.7378 165.574C69.401 165.442 69.0885 165.264 68.8034 165.042C68.7365 164.991 68.6714 164.938 68.6094 164.881C68.3966 164.692 68.2069 164.481 68.0428 164.244C68.0057 164.191 67.968 164.13 67.9303 164.074C67.8926 164.017 67.8604 163.956 67.8251 163.896C67.7929 163.835 67.7607 163.774 67.7315 163.712C67.7029 163.653 67.678 163.597 67.6525 163.538C67.6476 163.53 67.6452 163.518 67.6397 163.51C67.6178 163.453 67.5947 163.392 67.5759 163.335C67.5722 163.332 67.571 163.327 67.5698 163.321C67.5534 163.274 67.5406 163.231 67.5272 163.184C67.4981 163.095 67.4743 163.004 67.4537 162.91L56.0696 111.922C55.9717 111.485 55.9553 111.049 56.01 110.627C56.0969 109.96 56.3632 109.333 56.7706 108.811C56.7754 108.803 56.7827 108.796 56.79 108.788L56.9469 108.601C57.446 108.046 58.1178 107.636 58.9033 107.46L148.983 87.3485C149.072 87.3284 149.158 87.3126 149.246 87.3023C149.26 87.2962 149.278 87.295 149.294 87.2944C149.378 87.2816 149.465 87.2719 149.548 87.2658C149.566 87.2646 149.588 87.2634 149.606 87.2622C149.68 87.2579 149.754 87.2573 149.826 87.2597C149.844 87.2585 149.862 87.2579 149.882 87.2597C149.972 87.2609 150.06 87.2664 150.149 87.2743C150.231 87.281 150.317 87.2926 150.397 87.3053C150.513 87.323 150.628 87.3503 150.74 87.3807C150.802 87.3947 150.864 87.4117 150.925 87.4324C151.031 87.4646 151.136 87.5029 151.236 87.5491C151.239 87.5455 151.239 87.5485 151.239 87.5485L151.461 87.6512C151.471 87.6555 151.481 87.6591 151.488 87.6634C151.547 87.6908 151.6 87.7224 151.654 87.7534C151.696 87.7753 151.736 87.8002 151.776 87.8257C151.898 87.9005 152.015 87.9832 152.129 88.0756C152.181 88.1163 152.231 88.1583 152.278 88.2002C152.478 88.3753 152.659 88.5741 152.816 88.793C152.86 88.8514 152.902 88.9134 152.944 88.9754C152.945 88.9784 152.948 88.9809 152.949 88.9833C153.015 89.0836 153.072 89.1882 153.127 89.294C153.154 89.3469 153.178 89.3973 153.202 89.4508C153.221 89.4934 153.24 89.5323 153.255 89.5754C153.274 89.618 153.29 89.6606 153.306 89.7037C153.326 89.7548 153.344 89.8065 153.359 89.8594C153.375 89.9025 153.388 89.9487 153.398 89.9931C153.415 90.0545 153.432 90.119 153.446 90.181H153.445Z" fill="#B6E4B2"/>
<path d="M152.949 88.9833L56.0103 110.627C56.0972 109.959 56.3635 109.332 56.7708 108.81C56.7757 108.803 56.783 108.795 56.7903 108.787L56.9471 108.6L94.2468 64.4812C95.343 63.182 97.1711 62.7741 98.7159 63.4836L151.236 87.5485C151.238 87.5449 151.239 87.5479 151.239 87.5479L151.46 87.6507C151.471 87.6549 151.481 87.6586 151.488 87.6628C151.547 87.6902 151.6 87.7218 151.654 87.7528C151.696 87.7747 151.736 87.7996 151.775 87.8251C151.897 87.8999 152.015 87.9826 152.128 88.075C152.181 88.1157 152.231 88.1577 152.277 88.1996C152.478 88.3747 152.659 88.5735 152.816 88.7924C152.86 88.8508 152.902 88.9128 152.944 88.9748C152.944 88.9778 152.948 88.9803 152.949 88.9827V88.9833Z" fill="#76B479"/>
<path d="M154.675 125.737L70.0802 144.625L52.9424 67.8676C52.1375 64.2611 54.4082 60.6851 58.0146 59.8796L129.549 43.9078C133.156 43.1029 136.732 45.3736 137.537 48.98L154.675 125.737Z" fill="white"/>
<path d="M131.153 73.1325L68.9933 87.0111C68.1227 87.2056 67.2508 86.6524 67.0563 85.7812L66.9061 85.1082C66.7116 84.2376 67.2654 83.3658 68.136 83.1712L130.296 69.2927C131.166 69.0981 132.038 69.6514 132.233 70.5226L132.383 71.1956C132.578 72.0662 132.024 72.938 131.153 73.1325Z" fill="#91E5A3"/>
<path d="M132.984 81.3352L70.8243 95.2137C69.9537 95.4082 69.0819 94.855 68.8873 93.9838L68.7372 93.3108C68.5426 92.4402 69.0965 91.5684 69.9671 91.3738L132.127 77.4953C132.998 77.3007 133.869 77.8546 134.064 78.7252L134.214 79.3982C134.409 80.2688 133.855 81.1406 132.984 81.3352Z" fill="#91E5A3"/>
<path d="M134.816 89.5384L72.6563 103.417C71.7857 103.611 70.9139 103.058 70.7194 102.187L70.5692 101.514C70.3747 100.643 70.9285 99.7716 71.7991 99.577L133.959 85.6985C134.83 85.5039 135.701 86.0572 135.896 86.9284L136.046 87.6014C136.241 88.472 135.687 89.3438 134.816 89.5384Z" fill="#91E5A3"/>
<path d="M136.647 97.7416L74.4874 111.62C73.6168 111.815 72.745 111.261 72.5504 110.39L72.4003 109.717C72.2057 108.847 72.7596 107.975 73.6302 107.78L135.79 93.9017C136.661 93.7072 137.532 94.2604 137.727 95.1316L137.877 95.8047C138.072 96.6753 137.518 97.5471 136.647 97.7416Z" fill="#91E5A3"/>
<path d="M138.479 105.945L76.3189 119.823C75.4483 120.018 74.5765 119.465 74.382 118.593L74.2318 117.92C74.0373 117.05 74.5911 116.178 75.4617 115.984L137.622 102.105C138.492 101.91 139.364 102.464 139.559 103.335L139.709 104.008C139.903 104.878 139.35 105.75 138.479 105.945Z" fill="#91E5A3"/>
<path d="M92.7991 66.1647L65.69 72.2175C64.8194 72.4121 63.9476 71.8588 63.7531 70.9876L63.6029 70.3146C63.4084 69.444 63.9622 68.5722 64.8328 68.3777L91.9418 62.3248C92.8124 62.1302 93.6842 62.6835 93.8788 63.5547L94.029 64.2277C94.2235 65.0983 93.6703 65.9701 92.7991 66.1647Z" fill="#5FCC77"/>
<path d="M110.756 127.912V127.915C110.649 128.101 110.513 128.28 110.347 128.441L72.1163 165.698L71.9156 165.743C71.5466 165.825 71.18 165.851 70.8231 165.822C70.7727 165.818 70.7222 165.814 70.6742 165.809C70.0474 165.738 69.4534 165.508 68.9488 165.149C68.9014 165.117 68.8527 165.081 68.8041 165.042C68.6624 164.935 68.5293 164.812 68.404 164.682C68.3603 164.639 68.3226 164.595 68.2818 164.551C68.2435 164.504 68.2022 164.458 68.1663 164.41C67.8289 163.983 67.5796 163.477 67.4532 162.91L56.0691 111.922C55.9712 111.485 55.9548 111.049 56.0095 110.627C56.0965 109.96 56.3627 109.333 56.7701 108.811C56.7749 108.803 56.7822 108.796 56.7895 108.788L56.9464 108.601C57.4455 108.046 58.1173 107.636 58.9028 107.461C59.4475 107.339 60.0148 107.371 60.5425 107.554L64.1653 108.807L104.997 122.938L106.533 123.469L109.463 124.483C109.682 124.559 109.882 124.663 110.058 124.785V124.788C111.055 125.487 111.361 126.86 110.756 127.913L110.756 127.912Z" fill="#B7E2A8"/>
<path d="M153.445 90.181L164.83 141.168C164.843 141.23 164.854 141.293 164.866 141.359C164.873 141.388 164.876 141.418 164.88 141.449C164.886 141.475 164.89 141.505 164.893 141.536C164.896 141.547 164.896 141.56 164.898 141.571C164.9 141.593 164.901 141.611 164.902 141.63C164.909 141.675 164.91 141.721 164.914 141.767C164.918 141.809 164.918 141.855 164.919 141.899C164.92 141.905 164.919 141.914 164.921 141.92C164.921 141.933 164.921 141.948 164.918 141.964C164.921 141.979 164.923 141.997 164.92 142.013C164.922 142.035 164.92 142.057 164.919 142.078C164.919 142.119 164.918 142.156 164.915 142.197C164.916 142.203 164.915 142.212 164.914 142.219C164.911 142.288 164.905 142.358 164.895 142.425C164.895 142.428 164.896 142.431 164.894 142.435C164.889 142.47 164.887 142.502 164.879 142.537C164.876 142.565 164.87 142.595 164.865 142.627C164.864 142.634 164.863 142.643 164.862 142.652C164.844 142.74 164.827 142.831 164.803 142.917C164.796 142.943 164.788 142.976 164.779 143.006C164.77 143.035 164.761 143.062 164.752 143.093C164.742 143.119 164.736 143.148 164.724 143.176C164.705 143.233 164.684 143.291 164.662 143.345C164.649 143.383 164.634 143.414 164.623 143.447C164.588 143.526 164.552 143.6 164.515 143.673C164.487 143.728 164.459 143.781 164.429 143.831C164.401 143.884 164.369 143.935 164.336 143.985C164.324 144.01 164.307 144.032 164.291 144.057C164.277 144.079 164.263 144.101 164.246 144.12C164.23 144.146 164.211 144.171 164.192 144.197C164.187 144.205 164.18 144.212 164.175 144.22C164.13 144.282 164.081 144.343 164.032 144.4C164.026 144.405 164.022 144.412 164.017 144.419C163.977 144.462 163.938 144.508 163.895 144.552C163.88 144.567 163.868 144.583 163.855 144.595C163.832 144.619 163.81 144.642 163.786 144.663C163.769 144.682 163.751 144.699 163.73 144.716C163.71 144.736 163.689 144.756 163.668 144.773C163.524 144.904 163.367 145.023 163.202 145.128C163.191 145.133 163.18 145.142 163.172 145.147C163.161 145.152 163.148 145.161 163.136 145.168C163.098 145.191 163.06 145.216 163.018 145.237C162.95 145.278 162.88 145.312 162.81 145.346C162.773 145.364 162.737 145.381 162.7 145.399C162.678 145.409 162.652 145.419 162.629 145.427C162.601 145.439 162.57 145.452 162.542 145.465L162.533 145.467C162.506 145.476 162.482 145.487 162.458 145.496C162.447 145.498 162.435 145.504 162.424 145.507C162.404 145.514 162.384 145.522 162.361 145.53C162.349 145.532 162.337 145.538 162.323 145.541C162.279 145.554 162.232 145.568 162.189 145.581C162.125 145.599 162.06 145.616 161.996 145.63L161.795 145.675L111.349 128.218C111.131 128.142 110.931 128.038 110.757 127.915V127.912C109.757 127.214 109.452 125.847 110.059 124.787V124.784C110.163 124.6 110.3 124.42 110.465 124.26L112.683 122.096L113.846 120.962L144.793 90.8042L147.6 88.0696C147.959 87.7194 148.409 87.4762 148.899 87.3668L148.983 87.3479C149.072 87.3278 149.158 87.312 149.246 87.3017C149.26 87.2956 149.278 87.2944 149.294 87.2938C149.378 87.281 149.465 87.2713 149.548 87.2652C149.566 87.264 149.587 87.2628 149.606 87.2616C149.68 87.2573 149.754 87.2567 149.826 87.2591C149.844 87.2579 149.862 87.2573 149.882 87.2591C149.972 87.2604 150.06 87.2658 150.148 87.2737C150.231 87.2804 150.317 87.292 150.397 87.3047C150.513 87.3224 150.628 87.3497 150.739 87.3801C150.801 87.3941 150.864 87.4111 150.925 87.4318C151.031 87.464 151.136 87.5023 151.236 87.5485C151.239 87.5449 151.239 87.5479 151.239 87.5479L151.46 87.6507C151.471 87.6549 151.481 87.6586 151.488 87.6628C151.547 87.6902 151.6 87.7218 151.654 87.7528C151.696 87.7747 151.736 87.7996 151.775 87.8252C151.898 87.8999 152.015 87.9826 152.129 88.075C152.181 88.1158 152.231 88.1577 152.278 88.1997C152.478 88.3748 152.659 88.5736 152.816 88.7924C152.86 88.8508 152.902 88.9128 152.944 88.9748C152.944 88.9779 152.948 88.9803 152.949 88.9827C153.014 89.083 153.072 89.1876 153.127 89.2934C153.154 89.3463 153.178 89.3967 153.202 89.4502C153.221 89.4928 153.239 89.5317 153.255 89.5749C153.274 89.6174 153.29 89.66 153.306 89.7031C153.326 89.7542 153.344 89.8059 153.359 89.8588C153.375 89.902 153.388 89.9482 153.398 89.9925C153.415 90.0539 153.432 90.1184 153.446 90.1804L153.445 90.181Z" fill="#B7E2A8"/>
<g opacity="0.25" style="mix-blend-mode:multiply">
<path d="M164.675 140.478L164.793 141.008C165.263 143.111 164.01 145.18 161.995 145.63L71.9156 165.742C69.9014 166.192 67.8872 164.851 67.4179 162.749L67.2993 162.219L106.825 121.391C108.052 120.124 109.884 119.715 111.533 120.34L164.675 140.478V140.478Z" fill="#8DB495"/>
</g>
<path d="M164.716 140.66L164.829 141.168C165.279 143.182 164.011 145.181 161.996 145.631L71.9165 165.743C69.9023 166.193 67.9039 164.924 67.454 162.91L67.3403 162.401L107.152 122.853C108.388 121.625 110.219 121.217 111.86 121.802L164.716 140.661V140.66Z" fill="#B6E4B2"/>
<g opacity="0.18" style="mix-blend-mode:multiply">
<path d="M165.347 73.0603C173.44 64.9677 173.44 51.847 165.347 43.7544C157.254 35.6618 144.134 35.6618 136.041 43.7544C127.949 51.847 127.949 64.9677 136.041 73.0603C144.134 81.1529 157.254 81.1529 165.347 73.0603Z" fill="#263D2E"/>
</g>
<path d="M153.408 75.9687C164.853 75.9687 174.13 66.6909 174.13 55.2463C174.13 43.8016 164.853 34.5239 153.408 34.5239C141.963 34.5239 132.686 43.8016 132.686 55.2463C132.686 66.6909 141.963 75.9687 153.408 75.9687Z" fill="#7CAC86"/>
<path d="M157.643 50.1382L158.291 48.7429L161.78 49.4974L157.722 58.5384C157.469 59.1111 157.322 59.4941 157.28 59.688C157.236 59.8905 157.252 60.0601 157.329 60.1963C157.405 60.3325 157.514 60.4164 157.655 60.4468C158.131 60.5495 158.812 60.372 159.7 59.9136C160.588 59.4558 161.427 58.7518 162.218 57.8021C163.009 56.8525 163.542 55.7436 163.816 54.4747C164.045 53.4175 164.06 52.3785 163.861 51.3577C163.663 50.337 163.259 49.4013 162.649 48.5502C162.04 47.699 161.22 46.9591 160.19 46.3305C159.159 45.7019 157.939 45.2349 156.529 44.9297C155.093 44.6191 153.735 44.5212 152.456 44.6367C151.177 44.7522 150.007 45.0617 148.949 45.5663C147.89 46.0703 146.945 46.7719 146.114 47.6717C145.382 48.4541 144.757 49.3612 144.239 50.3923C143.72 51.424 143.338 52.508 143.093 53.6443C142.765 55.1599 142.767 56.6105 143.099 57.9967C143.431 59.3828 144.08 60.6255 145.046 61.7241C146.011 62.8233 147.271 63.7267 148.824 64.4368C150.376 65.1463 152.202 65.6169 154.301 65.8497C155.973 66.0084 157.433 65.9373 158.684 65.6357C159.934 65.3342 161.058 64.7748 162.056 63.9577L164.871 64.5669C164.209 65.4108 163.43 66.1227 162.534 66.7039C161.638 67.2851 160.642 67.7216 159.546 68.0153C158.45 68.3083 157.26 68.4548 155.979 68.4542C154.697 68.4536 153.333 68.2968 151.888 67.9843C149.721 67.5155 147.831 66.8097 146.218 65.8655C144.605 64.9214 143.322 63.7863 142.369 62.4597C141.416 61.1331 140.795 59.6613 140.508 58.0453C140.221 56.4293 140.273 54.7228 140.661 52.9251C141.067 51.0483 141.759 49.363 142.737 47.868C143.715 46.3737 144.923 45.1523 146.359 44.2038C147.795 43.2554 149.435 42.6262 151.277 42.3143C153.12 42.003 155.063 42.0681 157.108 42.5107C158.782 42.873 160.264 43.4494 161.555 44.2403C162.846 45.0313 163.889 45.9931 164.687 47.1245C165.485 48.2565 166.009 49.5065 166.262 50.8756C166.515 52.2441 166.478 53.6868 166.15 55.2019C165.894 56.3825 165.432 57.4933 164.765 58.5335C164.097 59.5737 163.271 60.4607 162.287 61.1933C161.304 61.9259 160.222 62.439 159.042 62.7327C157.863 63.0269 156.656 63.0397 155.423 62.7728C154.709 62.6184 154.18 62.3776 153.836 62.0493C153.492 61.7217 153.312 61.2785 153.293 60.7216C152.362 61.3137 151.378 61.6013 150.34 61.5836C149.301 61.5666 148.357 61.2651 147.505 60.6802C146.654 60.0947 146.038 59.2862 145.658 58.2538C145.277 57.2215 145.23 56.0403 145.518 54.71C145.817 53.3269 146.409 52.0295 147.293 50.8191C148.178 49.6086 149.261 48.6949 150.543 48.0772C151.824 47.4601 153.157 47.3008 154.54 47.5999C156.126 47.9428 157.161 48.7897 157.643 50.1388V50.1382ZM148.933 55.4201C148.704 56.4774 148.749 57.3352 149.068 57.9948C149.387 58.6539 149.903 59.0612 150.616 59.215C151.444 59.3944 152.245 59.2211 153.018 58.697C153.791 58.173 154.449 57.441 154.994 56.5029C155.538 55.5648 155.912 54.6243 156.116 53.6814C156.217 53.2144 156.253 52.7816 156.224 52.3834C156.194 51.9851 156.103 51.6216 155.948 51.2927C155.793 50.9644 155.579 50.6944 155.307 50.4835C155.034 50.2725 154.704 50.1248 154.316 50.0409C153.541 49.8731 152.778 50.0239 152.026 50.4932C151.274 50.9619 150.626 51.6429 150.083 52.5353C149.54 53.4278 149.156 54.389 148.933 55.4201Z" fill="#F9F9F9"/>
<g opacity="0.18" style="mix-blend-mode:multiply">
<path d="M68.2333 29.2894L20 27.3864L29.9219 38.041L27.3278 54.0273L38.6304 47.3738L43.4394 52.508L68.2333 29.2894Z" fill="#263D2E"/>
</g>
<path d="M27.9258 52.1238L31.7152 28.7726L68.8313 27.3864L27.9258 52.1238Z" fill="#9EC39B"/>
<path d="M30.5876 36.2098C30.7845 36.1502 68.832 27.3858 68.832 27.3858L20.5981 25.4823L30.5876 36.2098Z" fill="#7CAC86"/>
<path d="M33.9774 39.8636L27.9258 52.1238L46.6595 41.0953L33.9774 39.8636Z" fill="#B5D4AE"/>
<path d="M33.9775 39.8636L44.0375 50.6051L68.8314 27.3864L33.9775 39.8636Z" fill="#7CAC86"/>
<path d="M103.147 26.2082L105.831 24.7971C106.439 24.4773 107.15 24.9935 107.034 25.6708L106.521 28.6589C106.475 28.9276 106.564 29.2018 106.759 29.3927L108.93 31.509C109.422 31.9887 109.151 32.8241 108.471 32.9225L105.471 33.3585C105.201 33.398 104.968 33.567 104.847 33.812L103.506 36.5308C103.202 37.1467 102.323 37.1467 102.019 36.5308L100.677 33.812C100.556 33.5676 100.324 33.398 100.054 33.3585L97.0533 32.9225C96.3736 32.8241 96.1018 31.9881 96.5943 31.509L98.7653 29.3927C98.9605 29.2024 99.0498 28.9282 99.0036 28.6589L98.4911 25.6708C98.375 24.9935 99.0857 24.4773 99.6937 24.7971L102.377 26.2082C102.619 26.3353 102.907 26.3353 103.149 26.2082H103.147Z" fill="#59A552"/>
</svg>
